<mxfile host="65bd71144e">
    <diagram id="LVqH-G2yvnDWLred-8dz" name="Page-1">
        <mxGraphModel dx="1172" dy="422" grid="1" gridSize="10" guides="1" tooltips="1" connect="1" arrows="1" fold="1" page="1" pageScale="1" pageWidth="827" pageHeight="1169" background="#ffffff" math="0" shadow="0">
            <root>
                <mxCell id="0"/>
                <mxCell id="1" parent="0"/>
                <mxCell id="7" value="" style="edgeStyle=none;html=1;fontFamily=Helvetica;fontSize=12;fontColor=#FFFFFF;" edge="1" parent="1" source="5" target="6">
                    <mxGeometry relative="1" as="geometry"/>
                </mxCell>
                <mxCell id="9" value="" style="edgeStyle=none;html=1;fontFamily=Helvetica;fontSize=12;fontColor=#000000;" edge="1" parent="1" source="5" target="6">
                    <mxGeometry relative="1" as="geometry"/>
                </mxCell>
                <mxCell id="5" value="&lt;font color=&quot;#000000&quot;&gt;ユーザ&lt;/font&gt;" style="shape=umlActor;verticalLabelPosition=bottom;verticalAlign=top;html=1;strokeColor=#000000;fillColor=none;" vertex="1" parent="1">
                    <mxGeometry x="40" y="40" width="30" height="60" as="geometry"/>
                </mxCell>
                <mxCell id="8" value="" style="edgeStyle=none;html=1;fontFamily=Helvetica;fontSize=12;fontColor=#FFFFFF;" edge="1" parent="1" source="6" target="5">
                    <mxGeometry relative="1" as="geometry"/>
                </mxCell>
                <mxCell id="6" value="" style="html=1;points=[];perimeter=orthogonalPerimeter;fillColor=#1ba1e2;strokeColor=#006EAF;fontColor=#ffffff;" vertex="1" parent="1">
                    <mxGeometry x="50" y="120" width="10" height="720" as="geometry"/>
                </mxCell>
                <mxCell id="10" value="&lt;font color=&quot;#000000&quot;&gt;ルーム画面&lt;/font&gt;" style="shape=umlLifeline;perimeter=lifelinePerimeter;whiteSpace=wrap;html=1;container=1;collapsible=0;recursiveResize=0;outlineConnect=0;fontFamily=Helvetica;fontSize=12;fontColor=#ffffff;strokeColor=#006EAF;fillColor=#1ba1e2;" vertex="1" parent="1">
                    <mxGeometry x="120" y="60" width="110" height="770" as="geometry"/>
                </mxCell>
                <mxCell id="13" value="" style="html=1;points=[];perimeter=orthogonalPerimeter;fontFamily=Helvetica;fontSize=12;fontColor=#ffffff;strokeColor=#006EAF;fillColor=#1ba1e2;" vertex="1" parent="10">
                    <mxGeometry x="45" y="110" width="10" height="20" as="geometry"/>
                </mxCell>
                <mxCell id="49" value="" style="html=1;points=[];perimeter=orthogonalPerimeter;fontFamily=Helvetica;fontSize=12;fontColor=#ffffff;strokeColor=#006EAF;fillColor=#1ba1e2;" vertex="1" parent="10">
                    <mxGeometry x="305" y="511.28999999999996" width="10" height="80" as="geometry"/>
                </mxCell>
                <mxCell id="50" value="" style="html=1;points=[];perimeter=orthogonalPerimeter;fontFamily=Helvetica;fontSize=12;fontColor=#ffffff;strokeColor=#006EAF;fillColor=#1ba1e2;" vertex="1" parent="10">
                    <mxGeometry x="465" y="551.29" width="10" height="30" as="geometry"/>
                </mxCell>
                <mxCell id="51" value="" style="html=1;points=[];perimeter=orthogonalPerimeter;fontFamily=Helvetica;fontSize=12;fontColor=#ffffff;strokeColor=#006EAF;fillColor=#1ba1e2;" vertex="1" parent="10">
                    <mxGeometry x="175" y="481.28999999999996" width="10" height="30" as="geometry"/>
                </mxCell>
                <mxCell id="52" value="&lt;font color=&quot;#000000&quot;&gt;予鈴を追加&lt;/font&gt;" style="html=1;verticalAlign=bottom;startArrow=oval;startFill=1;endArrow=block;startSize=8;rounded=1;labelBackgroundColor=#FFFFFF;fontFamily=Helvetica;fontSize=12;fontColor=#FFFFFF;strokeColor=#000000;shape=connector;" edge="1" parent="10" source="51">
                    <mxGeometry x="0.0442" width="60" relative="1" as="geometry">
                        <mxPoint x="305" y="481.28999999999996" as="sourcePoint"/>
                        <mxPoint x="309.5" y="511.28999999999996" as="targetPoint"/>
                        <mxPoint as="offset"/>
                        <Array as="points">
                            <mxPoint x="250" y="511.28999999999996"/>
                        </Array>
                    </mxGeometry>
                </mxCell>
                <mxCell id="53" value="&lt;font color=&quot;#000000&quot;&gt;予鈴を追加&lt;/font&gt;" style="html=1;verticalAlign=bottom;startArrow=oval;startFill=1;endArrow=block;startSize=8;rounded=1;labelBackgroundColor=#FFFFFF;fontFamily=Helvetica;fontSize=12;fontColor=#FFFFFF;strokeColor=#000000;shape=connector;exitX=1.133;exitY=0.593;exitDx=0;exitDy=0;exitPerimeter=0;" edge="1" parent="10">
                    <mxGeometry x="-0.4871" y="9" width="60" relative="1" as="geometry">
                        <mxPoint x="-58.67000000000007" y="480" as="sourcePoint"/>
                        <mxPoint x="170" y="480.28999999999996" as="targetPoint"/>
                        <mxPoint as="offset"/>
                        <Array as="points">
                            <mxPoint x="40" y="480.28999999999996"/>
                        </Array>
                    </mxGeometry>
                </mxCell>
                <mxCell id="54" value="&lt;font color=&quot;#000000&quot;&gt;予鈴を追加&lt;/font&gt;" style="html=1;verticalAlign=bottom;startArrow=oval;startFill=1;endArrow=block;startSize=8;rounded=1;labelBackgroundColor=#FFFFFF;fontFamily=Helvetica;fontSize=12;fontColor=#FFFFFF;strokeColor=#000000;shape=connector;" edge="1" parent="10">
                    <mxGeometry x="0.0442" width="60" relative="1" as="geometry">
                        <mxPoint x="320" y="551.29" as="sourcePoint"/>
                        <mxPoint x="469.5" y="551.29" as="targetPoint"/>
                        <mxPoint as="offset"/>
                        <Array as="points">
                            <mxPoint x="385" y="551.29"/>
                        </Array>
                    </mxGeometry>
                </mxCell>
                <mxCell id="55" value="" style="html=1;points=[];perimeter=orthogonalPerimeter;fontFamily=Helvetica;fontSize=12;fontColor=#ffffff;strokeColor=#006EAF;fillColor=#1ba1e2;" vertex="1" parent="10">
                    <mxGeometry x="305" y="661.29" width="10" height="80" as="geometry"/>
                </mxCell>
                <mxCell id="56" value="" style="html=1;points=[];perimeter=orthogonalPerimeter;fontFamily=Helvetica;fontSize=12;fontColor=#ffffff;strokeColor=#006EAF;fillColor=#1ba1e2;" vertex="1" parent="10">
                    <mxGeometry x="465" y="701.29" width="10" height="30" as="geometry"/>
                </mxCell>
                <mxCell id="57" value="" style="html=1;points=[];perimeter=orthogonalPerimeter;fontFamily=Helvetica;fontSize=12;fontColor=#ffffff;strokeColor=#006EAF;fillColor=#1ba1e2;" vertex="1" parent="10">
                    <mxGeometry x="175" y="631.29" width="10" height="30" as="geometry"/>
                </mxCell>
                <mxCell id="58" value="&lt;font color=&quot;#000000&quot;&gt;予鈴を設定&lt;/font&gt;" style="html=1;verticalAlign=bottom;startArrow=oval;startFill=1;endArrow=block;startSize=8;rounded=1;labelBackgroundColor=#FFFFFF;fontFamily=Helvetica;fontSize=12;fontColor=#FFFFFF;strokeColor=#000000;shape=connector;" edge="1" parent="10" source="57">
                    <mxGeometry x="0.0442" width="60" relative="1" as="geometry">
                        <mxPoint x="305" y="631.29" as="sourcePoint"/>
                        <mxPoint x="309.5" y="661.29" as="targetPoint"/>
                        <mxPoint as="offset"/>
                        <Array as="points">
                            <mxPoint x="250" y="661.29"/>
                        </Array>
                    </mxGeometry>
                </mxCell>
                <mxCell id="59" value="&lt;font color=&quot;#000000&quot;&gt;予鈴を入力&lt;/font&gt;" style="html=1;verticalAlign=bottom;startArrow=oval;startFill=1;endArrow=block;startSize=8;rounded=1;labelBackgroundColor=#FFFFFF;fontFamily=Helvetica;fontSize=12;fontColor=#FFFFFF;strokeColor=#000000;shape=connector;exitX=1.133;exitY=0.593;exitDx=0;exitDy=0;exitPerimeter=0;" edge="1" parent="10">
                    <mxGeometry x="-0.4871" y="9" width="60" relative="1" as="geometry">
                        <mxPoint x="-58.67000000000007" y="630" as="sourcePoint"/>
                        <mxPoint x="170" y="630.29" as="targetPoint"/>
                        <mxPoint as="offset"/>
                        <Array as="points">
                            <mxPoint x="40" y="630.29"/>
                        </Array>
                    </mxGeometry>
                </mxCell>
                <mxCell id="60" value="&lt;font color=&quot;#000000&quot;&gt;予鈴を設定&lt;/font&gt;" style="html=1;verticalAlign=bottom;startArrow=oval;startFill=1;endArrow=block;startSize=8;rounded=1;labelBackgroundColor=#FFFFFF;fontFamily=Helvetica;fontSize=12;fontColor=#FFFFFF;strokeColor=#000000;shape=connector;" edge="1" parent="10">
                    <mxGeometry x="0.0442" width="60" relative="1" as="geometry">
                        <mxPoint x="320" y="701.29" as="sourcePoint"/>
                        <mxPoint x="469.5" y="701.29" as="targetPoint"/>
                        <mxPoint as="offset"/>
                        <Array as="points">
                            <mxPoint x="385" y="701.29"/>
                        </Array>
                    </mxGeometry>
                </mxCell>
                <mxCell id="20" value="dispatch" style="html=1;verticalAlign=bottom;startArrow=oval;startFill=1;endArrow=block;startSize=8;rounded=1;labelBackgroundColor=#FFFFFF;fontFamily=Helvetica;fontSize=12;fontColor=#FFFFFF;strokeColor=#000000;shape=connector;" edge="1" parent="1" target="10">
                    <mxGeometry width="60" relative="1" as="geometry">
                        <mxPoint x="70" y="170" as="sourcePoint"/>
                        <mxPoint x="310" y="240" as="targetPoint"/>
                        <Array as="points">
                            <mxPoint x="130" y="170"/>
                        </Array>
                    </mxGeometry>
                </mxCell>
                <mxCell id="21" value="&lt;font color=&quot;#000000&quot;&gt;タイマーの設定&lt;br&gt;ボタンを押す&lt;/font&gt;" style="text;html=1;align=center;verticalAlign=middle;resizable=0;points=[];autosize=1;strokeColor=none;fillColor=none;fontSize=12;fontFamily=Helvetica;fontColor=#FFFFFF;" vertex="1" parent="1">
                    <mxGeometry x="70" y="130" width="100" height="30" as="geometry"/>
                </mxCell>
                <mxCell id="23" value="&lt;font color=&quot;#000000&quot;&gt;タイマー設定&lt;br&gt;コントローラ&lt;/font&gt;" style="shape=umlLifeline;perimeter=lifelinePerimeter;whiteSpace=wrap;html=1;container=1;collapsible=0;recursiveResize=0;outlineConnect=0;fontFamily=Helvetica;fontSize=12;strokeColor=#36393d;fillColor=#cdeb8b;" vertex="1" parent="1">
                    <mxGeometry x="380" y="60" width="100" height="780" as="geometry"/>
                </mxCell>
                <mxCell id="38" style="edgeStyle=none;shape=connector;rounded=1;html=1;labelBackgroundColor=#FFFFFF;fontFamily=Helvetica;fontSize=12;fontColor=#000000;endArrow=classic;strokeColor=#000000;" edge="1" parent="23" source="27" target="23">
                    <mxGeometry relative="1" as="geometry"/>
                </mxCell>
                <mxCell id="27" value="" style="html=1;points=[];perimeter=orthogonalPerimeter;fontFamily=Helvetica;fontSize=12;fontColor=#ffffff;strokeColor=#006EAF;fillColor=#1ba1e2;" vertex="1" parent="23">
                    <mxGeometry x="45" y="130" width="10" height="160" as="geometry"/>
                </mxCell>
                <mxCell id="40" value="" style="html=1;points=[];perimeter=orthogonalPerimeter;fontFamily=Helvetica;fontSize=12;fontColor=#ffffff;strokeColor=#006EAF;fillColor=#1ba1e2;" vertex="1" parent="23">
                    <mxGeometry x="45" y="370" width="10" height="80" as="geometry"/>
                </mxCell>
                <mxCell id="24" value="&lt;font color=&quot;#000000&quot;&gt;タイマー&lt;/font&gt;" style="shape=umlLifeline;perimeter=lifelinePerimeter;whiteSpace=wrap;html=1;container=1;collapsible=0;recursiveResize=0;outlineConnect=0;fontFamily=Helvetica;fontSize=12;strokeColor=#A50040;fillColor=#d80073;fontColor=#ffffff;" vertex="1" parent="1">
                    <mxGeometry x="540" y="60" width="100" height="780" as="geometry"/>
                </mxCell>
                <mxCell id="28" value="dispatch" style="html=1;verticalAlign=bottom;startArrow=oval;startFill=1;endArrow=block;startSize=8;rounded=1;labelBackgroundColor=#FFFFFF;fontFamily=Helvetica;fontSize=12;fontColor=#FFFFFF;strokeColor=#000000;shape=connector;exitX=1.133;exitY=0.139;exitDx=0;exitDy=0;exitPerimeter=0;" edge="1" parent="24">
                    <mxGeometry width="60" relative="1" as="geometry">
                        <mxPoint x="-100" y="160" as="sourcePoint"/>
                        <mxPoint x="40" y="160" as="targetPoint"/>
                    </mxGeometry>
                </mxCell>
                <mxCell id="30" value="" style="html=1;points=[];perimeter=orthogonalPerimeter;fontFamily=Helvetica;fontSize=12;fontColor=#ffffff;strokeColor=#006EAF;fillColor=#1ba1e2;" vertex="1" parent="24">
                    <mxGeometry x="45" y="160" width="10" height="30" as="geometry"/>
                </mxCell>
                <mxCell id="47" value="" style="html=1;points=[];perimeter=orthogonalPerimeter;fontFamily=Helvetica;fontSize=12;fontColor=#ffffff;strokeColor=#006EAF;fillColor=#1ba1e2;" vertex="1" parent="24">
                    <mxGeometry x="45" y="410" width="10" height="30" as="geometry"/>
                </mxCell>
                <mxCell id="25" value="dispatch" style="html=1;verticalAlign=bottom;startArrow=oval;startFill=1;endArrow=block;startSize=8;rounded=1;labelBackgroundColor=#FFFFFF;fontFamily=Helvetica;fontSize=12;fontColor=#FFFFFF;strokeColor=#000000;shape=connector;exitX=1.133;exitY=0.139;exitDx=0;exitDy=0;exitPerimeter=0;" edge="1" parent="1" target="23">
                    <mxGeometry width="60" relative="1" as="geometry">
                        <mxPoint x="180" y="190" as="sourcePoint"/>
                        <mxPoint x="288.17" y="190" as="targetPoint"/>
                    </mxGeometry>
                </mxCell>
                <mxCell id="26" value="&lt;font color=&quot;#000000&quot;&gt;タイマーの設定&lt;br&gt;ボタンを押す&lt;/font&gt;" style="text;html=1;align=center;verticalAlign=middle;resizable=0;points=[];autosize=1;strokeColor=none;fillColor=none;fontSize=12;fontFamily=Helvetica;fontColor=#FFFFFF;" vertex="1" parent="1">
                    <mxGeometry x="180" y="160" width="100" height="30" as="geometry"/>
                </mxCell>
                <mxCell id="32" value="&lt;font color=&quot;#000000&quot;&gt;タイマー設定画面&lt;/font&gt;" style="shape=umlLifeline;perimeter=lifelinePerimeter;whiteSpace=wrap;html=1;container=1;collapsible=0;recursiveResize=0;outlineConnect=0;fontFamily=Helvetica;fontSize=12;fontColor=#ffffff;strokeColor=#006EAF;fillColor=#1ba1e2;" vertex="1" parent="1">
                    <mxGeometry x="250" y="60" width="100" height="780" as="geometry"/>
                </mxCell>
                <mxCell id="33" value="" style="html=1;points=[];perimeter=orthogonalPerimeter;fontFamily=Helvetica;fontSize=12;fontColor=#ffffff;strokeColor=#006EAF;fillColor=#1ba1e2;" vertex="1" parent="32">
                    <mxGeometry x="45" y="230" width="10" height="20" as="geometry"/>
                </mxCell>
                <mxCell id="36" value="" style="html=1;points=[];perimeter=orthogonalPerimeter;fontFamily=Helvetica;fontSize=12;fontColor=#ffffff;strokeColor=#006EAF;fillColor=#1ba1e2;" vertex="1" parent="32">
                    <mxGeometry x="45" y="270" width="10" height="20" as="geometry"/>
                </mxCell>
                <mxCell id="37" value="&lt;font color=&quot;#000000&quot;&gt;現在の設定をセット&lt;/font&gt;" style="html=1;verticalAlign=bottom;startArrow=oval;startFill=1;endArrow=block;startSize=8;rounded=1;labelBackgroundColor=#FFFFFF;fontFamily=Helvetica;fontSize=12;fontColor=#FFFFFF;strokeColor=#000000;shape=connector;exitX=-0.3;exitY=0.993;exitDx=0;exitDy=0;exitPerimeter=0;" edge="1" parent="32">
                    <mxGeometry x="-0.0612" y="-10" width="60" relative="1" as="geometry">
                        <mxPoint x="177.5" y="230" as="sourcePoint"/>
                        <mxPoint x="55" y="230" as="targetPoint"/>
                        <mxPoint x="1" as="offset"/>
                    </mxGeometry>
                </mxCell>
                <mxCell id="39" value="" style="html=1;points=[];perimeter=orthogonalPerimeter;fontFamily=Helvetica;fontSize=12;fontColor=#ffffff;strokeColor=#006EAF;fillColor=#1ba1e2;" vertex="1" parent="32">
                    <mxGeometry x="45" y="340" width="10" height="30" as="geometry"/>
                </mxCell>
                <mxCell id="29" value="&lt;font color=&quot;#000000&quot;&gt;タイマーの状態&lt;br&gt;現在の設定を確認&lt;/font&gt;" style="text;html=1;align=center;verticalAlign=middle;resizable=0;points=[];autosize=1;strokeColor=none;fillColor=none;fontSize=12;fontFamily=Helvetica;fontColor=#FFFFFF;" vertex="1" parent="1">
                    <mxGeometry x="460" y="180" width="110" height="30" as="geometry"/>
                </mxCell>
                <mxCell id="34" value="&lt;font color=&quot;#000000&quot;&gt;画面表示&lt;/font&gt;" style="html=1;verticalAlign=bottom;startArrow=oval;startFill=1;endArrow=block;startSize=8;rounded=1;labelBackgroundColor=#FFFFFF;fontFamily=Helvetica;fontSize=12;fontColor=#FFFFFF;strokeColor=#000000;shape=connector;exitX=0.033;exitY=0.875;exitDx=0;exitDy=0;exitPerimeter=0;entryX=1.167;entryY=0.067;entryDx=0;entryDy=0;entryPerimeter=0;" edge="1" parent="1" source="27" target="36">
                    <mxGeometry x="-0.0673" width="60" relative="1" as="geometry">
                        <mxPoint x="450" y="300" as="sourcePoint"/>
                        <mxPoint x="590" y="300" as="targetPoint"/>
                        <Array as="points">
                            <mxPoint x="370" y="331"/>
                        </Array>
                        <mxPoint as="offset"/>
                    </mxGeometry>
                </mxCell>
                <mxCell id="41" value="&lt;font color=&quot;#000000&quot;&gt;本鈴を設定&lt;/font&gt;" style="html=1;verticalAlign=bottom;startArrow=oval;startFill=1;endArrow=block;startSize=8;rounded=1;labelBackgroundColor=#FFFFFF;fontFamily=Helvetica;fontSize=12;fontColor=#FFFFFF;strokeColor=#000000;shape=connector;" edge="1" parent="1" source="39" target="23">
                    <mxGeometry x="0.0442" width="60" relative="1" as="geometry">
                        <mxPoint x="425" y="400" as="sourcePoint"/>
                        <mxPoint x="302.5" y="400" as="targetPoint"/>
                        <mxPoint as="offset"/>
                        <Array as="points">
                            <mxPoint x="370" y="430"/>
                        </Array>
                    </mxGeometry>
                </mxCell>
                <mxCell id="42" value="&lt;font color=&quot;#000000&quot;&gt;本鈴を入力&lt;/font&gt;" style="html=1;verticalAlign=bottom;startArrow=oval;startFill=1;endArrow=block;startSize=8;rounded=1;labelBackgroundColor=#FFFFFF;fontFamily=Helvetica;fontSize=12;fontColor=#FFFFFF;strokeColor=#000000;shape=connector;exitX=1.067;exitY=0.389;exitDx=0;exitDy=0;exitPerimeter=0;" edge="1" parent="1" source="6">
                    <mxGeometry x="-0.4871" y="9" width="60" relative="1" as="geometry">
                        <mxPoint x="212.5" y="330" as="sourcePoint"/>
                        <mxPoint x="290" y="399" as="targetPoint"/>
                        <mxPoint as="offset"/>
                        <Array as="points">
                            <mxPoint x="160" y="399"/>
                        </Array>
                    </mxGeometry>
                </mxCell>
                <mxCell id="48" value="&lt;font color=&quot;#000000&quot;&gt;本鈴を設定&lt;/font&gt;" style="html=1;verticalAlign=bottom;startArrow=oval;startFill=1;endArrow=block;startSize=8;rounded=1;labelBackgroundColor=#FFFFFF;fontFamily=Helvetica;fontSize=12;fontColor=#FFFFFF;strokeColor=#000000;shape=connector;" edge="1" parent="1" target="24">
                    <mxGeometry x="0.0442" width="60" relative="1" as="geometry">
                        <mxPoint x="440" y="470" as="sourcePoint"/>
                        <mxPoint x="564.5" y="470" as="targetPoint"/>
                        <mxPoint as="offset"/>
                        <Array as="points">
                            <mxPoint x="505" y="470"/>
                        </Array>
                    </mxGeometry>
                </mxCell>
            </root>
        </mxGraphModel>
    </diagram>
</mxfile>